<svg xmlns="http://www.w3.org/2000/svg" width="1080" height="2340" viewBox="0 0 1080 2340">
  <defs>
    <linearGradient id="night" x1="0" y1="0" x2="0" y2="1">
      <stop offset="0%" stop-color="#101625"/>
      <stop offset="60%" stop-color="#1E2943"/>
      <stop offset="100%" stop-color="#2B2B2B"/>
    </linearGradient>
  </defs>
  <rect width="1080" height="2340" fill="url(#night)"/>

  <circle cx="875" cy="210" r="88" fill="#F7EEC7"/>
  <circle cx="915" cy="190" r="74" fill="#1A2438"/>

  <g fill="#FFFFFF" opacity="0.7">
    <circle cx="110" cy="180" r="3"/><circle cx="220" cy="260" r="2"/><circle cx="300" cy="120" r="3"/>
    <circle cx="410" cy="230" r="2"/><circle cx="540" cy="170" r="3"/><circle cx="650" cy="290" r="2"/>
    <circle cx="760" cy="130" r="2"/><circle cx="940" cy="310" r="3"/><circle cx="990" cy="190" r="2"/>
    <circle cx="170" cy="420" r="2"/><circle cx="350" cy="500" r="3"/><circle cx="510" cy="390" r="2"/>
  </g>

  <g stroke="#A7B2BE" stroke-width="6" stroke-linecap="round" opacity="0.7">
    <line x1="250" y1="1120" x2="250" y2="1320"/>
    <line x1="490" y1="940" x2="490" y2="1160"/>
    <line x1="760" y1="1200" x2="760" y2="1410"/>
    <line x1="590" y1="1450" x2="590" y2="1660"/>
    <line x1="350" y1="1580" x2="350" y2="1780"/>
  </g>

  <g>
    <ellipse cx="250" cy="1000" rx="84" ry="116" fill="#F7B4C5"/>
    <ellipse cx="490" cy="800" rx="92" ry="126" fill="#F6A8D8"/>
    <ellipse cx="760" cy="1080" rx="86" ry="118" fill="#9ED7F7"/>
    <ellipse cx="590" cy="1320" rx="90" ry="122" fill="#B8E3B1"/>
    <ellipse cx="350" cy="1460" rx="82" ry="112" fill="#F9CFA3"/>
  </g>

  <text x="56" y="120" font-size="64" font-family="Arial, sans-serif" fill="#F4F7FF">Popped: 1/5</text>

  <rect x="320" y="2120" rx="34" ry="34" width="440" height="116" fill="#2D3D58" opacity="0.92" stroke="#A2B4CE" stroke-width="3"/>
  <text x="398" y="2195" font-size="44" font-family="Arial, sans-serif" fill="#F4F7FF">Restore Balloons</text>
</svg>
