<svg xmlns="http://www.w3.org/2000/svg" width="1080" height="2340" viewBox="0 0 1080 2340">
  <defs>
    <linearGradient id="sky" x1="0" y1="0" x2="0" y2="1">
      <stop offset="0%" stop-color="#E7F7FF"/>
      <stop offset="100%" stop-color="#CDE7FF"/>
    </linearGradient>
  </defs>
  <rect width="1080" height="2340" fill="url(#sky)"/>
  <circle cx="905" cy="200" r="90" fill="#FFE394"/>

  <g fill="#FFFFFF" opacity="0.85">
    <ellipse cx="240" cy="340" rx="120" ry="60"/>
    <ellipse cx="650" cy="450" rx="140" ry="70"/>
    <ellipse cx="870" cy="620" rx="100" ry="52"/>
  </g>

  <g stroke="#7B8794" stroke-width="6" stroke-linecap="round" opacity="0.75">
    <line x1="250" y1="1120" x2="250" y2="1320"/>
    <line x1="490" y1="940" x2="490" y2="1160"/>
    <line x1="760" y1="1200" x2="760" y2="1410"/>
    <line x1="590" y1="1450" x2="590" y2="1660"/>
    <line x1="350" y1="1580" x2="350" y2="1780"/>
  </g>

  <g>
    <ellipse cx="250" cy="1000" rx="84" ry="116" fill="#F7B4C5"/>
    <ellipse cx="490" cy="800" rx="92" ry="126" fill="#F6A8D8"/>
    <ellipse cx="760" cy="1080" rx="86" ry="118" fill="#9ED7F7"/>
    <ellipse cx="590" cy="1320" rx="90" ry="122" fill="#B8E3B1"/>
    <ellipse cx="350" cy="1460" rx="82" ry="112" fill="#F9CFA3"/>
  </g>

  <text x="56" y="120" font-size="64" font-family="Arial, sans-serif" fill="#2E4057">Popped: 1/5</text>

  <rect x="320" y="2120" rx="34" ry="34" width="440" height="116" fill="#FFFFFF" opacity="0.9" stroke="#8EA5C0" stroke-width="3"/>
  <text x="398" y="2195" font-size="44" font-family="Arial, sans-serif" fill="#2E4057">Restore Balloons</text>
</svg>
